<?xml version="1.0" encoding="UTF-8" standalone="no"?>
<!-- Created with Inkscape (http://www.inkscape.org/) -->

<svg
   version="1.1"
   id="svg2"
   width="2000"
   height="1333.3333"
   viewBox="0 0 2000 1333.3333"
   sodipodi:docname="different colour.svg"
   inkscape:version="1.2.2 (b0a8486541, 2022-12-01)"
   xmlns:inkscape="http://www.inkscape.org/namespaces/inkscape"
   xmlns:sodipodi="http://sodipodi.sourceforge.net/DTD/sodipodi-0.dtd"
   xmlns:xlink="http://www.w3.org/1999/xlink"
   xmlns="http://www.w3.org/2000/svg"
   xmlns:svg="http://www.w3.org/2000/svg">
  <defs
     id="defs6">
    <linearGradient
       inkscape:collect="always"
       id="linearGradient3923">
      <stop
         style="stop-color:#212121;stop-opacity:1;"
         offset="0.37858349"
         id="stop3919" />
      <stop
         style="stop-color:#676767;stop-opacity:1;"
         offset="1"
         id="stop3921" />
    </linearGradient>
    <linearGradient
       inkscape:collect="always"
       id="linearGradient3187">
      <stop
         style="stop-color:#008dff;stop-opacity:1;"
         offset="0.04054934"
         id="stop3183" />
      <stop
         style="stop-color:#005c79;stop-opacity:1;"
         offset="0.67107552"
         id="stop3185" />
    </linearGradient>
    <linearGradient
       inkscape:collect="always"
       id="linearGradient3153">
      <stop
         style="stop-color:#ff6a00;stop-opacity:1;"
         offset="0"
         id="stop3149" />
      <stop
         style="stop-color:#e78c2d;stop-opacity:1;"
         offset="0.52438104"
         id="stop3151" />
    </linearGradient>
    <linearGradient
       inkscape:collect="always"
       id="linearGradient3145">
      <stop
         style="stop-color:#ff6a00;stop-opacity:1;"
         offset="0.32613286"
         id="stop3141" />
      <stop
         style="stop-color:#e78c2d;stop-opacity:1;"
         offset="1"
         id="stop3143" />
    </linearGradient>
    <linearGradient
       inkscape:collect="always"
       id="linearGradient3137">
      <stop
         style="stop-color:#212121;stop-opacity:1;"
         offset="0.10602467"
         id="stop3133" />
      <stop
         style="stop-color:#676767;stop-opacity:1;"
         offset="1"
         id="stop3135" />
    </linearGradient>
    <linearGradient
       inkscape:collect="always"
       id="linearGradient951">
      <stop
         style="stop-color:#ff6a00;stop-opacity:1;"
         offset="0.16747005"
         id="stop947" />
      <stop
         style="stop-color:#e78c2d;stop-opacity:1;"
         offset="1"
         id="stop949" />
    </linearGradient>
    <linearGradient
       x1="0"
       y1="0"
       x2="1"
       y2="0"
       gradientUnits="userSpaceOnUse"
       gradientTransform="matrix(91.442108,-74.792381,-74.792381,-91.442108,648.49597,544.89185)"
       spreadMethod="pad"
       id="linearGradient32">
      <stop
         style="stop-opacity:1;stop-color:#45f4ff"
         offset="0"
         id="stop26" />
      <stop
         style="stop-opacity:1;stop-color:#45f4ff"
         offset="0.07054559"
         id="stop28" />
      <stop
         style="stop-opacity:1;stop-color:#3f83fb"
         offset="1"
         id="stop30" />
    </linearGradient>
    <linearGradient
       x1="0"
       y1="0"
       x2="1"
       y2="0"
       gradientUnits="userSpaceOnUse"
       gradientTransform="matrix(390.03943,-319.0213,-319.0213,-390.03943,500.00903,662.38348)"
       spreadMethod="pad"
       id="linearGradient54">
      <stop
         style="stop-opacity:1;stop-color:#ef7ec0"
         offset="0"
         id="stop48" />
      <stop
         style="stop-opacity:1;stop-color:#ef7ec0"
         offset="0.10746959"
         id="stop50" />
      <stop
         style="stop-opacity:1;stop-color:#e00063"
         offset="1"
         id="stop52" />
    </linearGradient>
    <linearGradient
       x1="0"
       y1="0"
       x2="1"
       y2="0"
       gradientUnits="userSpaceOnUse"
       gradientTransform="matrix(-49.268631,114.17083,114.17083,49.268631,791.95013,445.11688)"
       spreadMethod="pad"
       id="linearGradient76">
      <stop
         style="stop-opacity:1;stop-color:#45f4ff"
         offset="0"
         id="stop70" />
      <stop
         style="stop-opacity:1;stop-color:#45f4ff"
         offset="0.07054559"
         id="stop72" />
      <stop
         style="stop-opacity:1;stop-color:#3f83fb"
         offset="1"
         id="stop74" />
    </linearGradient>
    <linearGradient
       x1="0"
       y1="0"
       x2="1"
       y2="0"
       gradientUnits="userSpaceOnUse"
       gradientTransform="matrix(-126.58599,-72.22522,-72.22522,126.58599,847.43677,470.474)"
       spreadMethod="pad"
       id="linearGradient98">
      <stop
         style="stop-opacity:1;stop-color:#ef7ec0"
         offset="0"
         id="stop92" />
      <stop
         style="stop-opacity:1;stop-color:#ef7ec0"
         offset="0.10746959"
         id="stop94" />
      <stop
         style="stop-opacity:1;stop-color:#e00063"
         offset="1"
         id="stop96" />
    </linearGradient>
    <linearGradient
       x1="0"
       y1="0"
       x2="1"
       y2="0"
       gradientUnits="userSpaceOnUse"
       gradientTransform="matrix(276.49887,-307.62668,-310.20239,-278.82001,561.36969,678.37628)"
       spreadMethod="pad"
       id="linearGradient120">
      <stop
         style="stop-opacity:1;stop-color:#45f4ff"
         offset="0"
         id="stop114" />
      <stop
         style="stop-opacity:1;stop-color:#45f4ff"
         offset="0.07054559"
         id="stop116" />
      <stop
         style="stop-opacity:1;stop-color:#3f83fb"
         offset="1"
         id="stop118" />
    </linearGradient>
    <linearGradient
       x1="0"
       y1="0"
       x2="1"
       y2="0"
       gradientUnits="userSpaceOnUse"
       gradientTransform="matrix(54.3115,-44.422497,-44.422497,-54.3115,470.57175,392.82639)"
       spreadMethod="pad"
       id="linearGradient142">
      <stop
         style="stop-opacity:1;stop-color:#45f4ff"
         offset="0"
         id="stop136" />
      <stop
         style="stop-opacity:1;stop-color:#45f4ff"
         offset="0.07054559"
         id="stop138" />
      <stop
         style="stop-opacity:1;stop-color:#3f83fb"
         offset="1"
         id="stop140" />
    </linearGradient>
    <linearGradient
       x1="0"
       y1="0"
       x2="1"
       y2="0"
       gradientUnits="userSpaceOnUse"
       gradientTransform="matrix(36.608589,-29.942919,-29.942919,-36.608589,670.17517,411.64752)"
       spreadMethod="pad"
       id="linearGradient164">
      <stop
         style="stop-opacity:1;stop-color:#45f4ff"
         offset="0"
         id="stop158" />
      <stop
         style="stop-opacity:1;stop-color:#45f4ff"
         offset="0.07054559"
         id="stop160" />
      <stop
         style="stop-opacity:1;stop-color:#3f83fb"
         offset="1"
         id="stop162" />
    </linearGradient>
    <linearGradient
       x1="0"
       y1="0"
       x2="1"
       y2="0"
       gradientUnits="userSpaceOnUse"
       gradientTransform="matrix(232.31921,-190.01868,-190.01868,-232.31921,574.65515,627.73791)"
       spreadMethod="pad"
       id="linearGradient186">
      <stop
         style="stop-opacity:1;stop-color:#45f4ff"
         offset="0"
         id="stop180" />
      <stop
         style="stop-opacity:1;stop-color:#45f4ff"
         offset="0.07054559"
         id="stop182" />
      <stop
         style="stop-opacity:1;stop-color:#3f83fb"
         offset="1"
         id="stop184" />
    </linearGradient>
    <linearGradient
       x1="0"
       y1="0"
       x2="1"
       y2="0"
       gradientUnits="userSpaceOnUse"
       gradientTransform="matrix(43.551117,-35.621353,-35.621353,-43.551117,672.67023,737.89471)"
       spreadMethod="pad"
       id="linearGradient208">
      <stop
         style="stop-opacity:1;stop-color:#45f4ff"
         offset="0"
         id="stop202" />
      <stop
         style="stop-opacity:1;stop-color:#45f4ff"
         offset="0.07054559"
         id="stop204" />
      <stop
         style="stop-opacity:1;stop-color:#3f83fb"
         offset="1"
         id="stop206" />
    </linearGradient>
    <linearGradient
       x1="0"
       y1="0"
       x2="1"
       y2="0"
       gradientUnits="userSpaceOnUse"
       gradientTransform="matrix(-101.25969,-57.774979,-57.774979,101.25969,648.65344,468.31927)"
       spreadMethod="pad"
       id="linearGradient230">
      <stop
         style="stop-opacity:1;stop-color:#ef7ec0"
         offset="0"
         id="stop224" />
      <stop
         style="stop-opacity:1;stop-color:#ef7ec0"
         offset="0.10746959"
         id="stop226" />
      <stop
         style="stop-opacity:1;stop-color:#e00063"
         offset="1"
         id="stop228" />
    </linearGradient>
    <linearGradient
       x1="0"
       y1="0"
       x2="1"
       y2="0"
       gradientUnits="userSpaceOnUse"
       gradientTransform="matrix(-55.710682,-31.786425,-31.786425,55.710682,608.78217,569.82965)"
       spreadMethod="pad"
       id="linearGradient252">
      <stop
         style="stop-opacity:1;stop-color:#ef7ec0"
         offset="0"
         id="stop246" />
      <stop
         style="stop-opacity:1;stop-color:#ef7ec0"
         offset="0.10746959"
         id="stop248" />
      <stop
         style="stop-opacity:1;stop-color:#e00063"
         offset="1"
         id="stop250" />
    </linearGradient>
    <linearGradient
       x1="0"
       y1="0"
       x2="1"
       y2="0"
       gradientUnits="userSpaceOnUse"
       gradientTransform="matrix(-59.906776,-34.180557,-34.180557,59.906776,832.70911,370.10242)"
       spreadMethod="pad"
       id="linearGradient274">
      <stop
         style="stop-opacity:1;stop-color:#ef7ec0"
         offset="0"
         id="stop268" />
      <stop
         style="stop-opacity:1;stop-color:#ef7ec0"
         offset="0.10746959"
         id="stop270" />
      <stop
         style="stop-opacity:1;stop-color:#e00063"
         offset="1"
         id="stop272" />
    </linearGradient>
    <linearGradient
       x1="0"
       y1="0"
       x2="1"
       y2="0"
       gradientUnits="userSpaceOnUse"
       gradientTransform="matrix(-59.907944,-34.181225,-34.181225,59.907944,599.71759,742.92236)"
       spreadMethod="pad"
       id="linearGradient296">
      <stop
         style="stop-opacity:1;stop-color:#45f4ff"
         offset="0"
         id="stop290" />
      <stop
         style="stop-opacity:1;stop-color:#45f4ff"
         offset="0.07054559"
         id="stop292" />
      <stop
         style="stop-opacity:1;stop-color:#3f83fb"
         offset="1"
         id="stop294" />
    </linearGradient>
    <linearGradient
       inkscape:collect="always"
       xlink:href="#linearGradient951"
       id="linearGradient953"
       x1="582.47353"
       y1="524.8685"
       x2="866.718"
       y2="524.8685"
       gradientUnits="userSpaceOnUse" />
    <linearGradient
       inkscape:collect="always"
       xlink:href="#linearGradient3137"
       id="linearGradient3139"
       x1="646.87068"
       y1="523.66988"
       x2="746.14071"
       y2="523.66988"
       gradientUnits="userSpaceOnUse" />
    <linearGradient
       inkscape:collect="always"
       xlink:href="#linearGradient3145"
       id="linearGradient3147"
       x1="519.72522"
       y1="509.45326"
       x2="1011.3207"
       y2="509.45326"
       gradientUnits="userSpaceOnUse" />
    <linearGradient
       inkscape:collect="always"
       xlink:href="#linearGradient3153"
       id="linearGradient3155"
       x1="461.51461"
       y1="378.94252"
       x2="523.417"
       y2="378.94252"
       gradientUnits="userSpaceOnUse" />
    <linearGradient
       inkscape:collect="always"
       xlink:href="#linearGradient3187"
       id="linearGradient3191"
       x1="635.14868"
       y1="507.49545"
       x2="753.2854"
       y2="507.49545"
       gradientUnits="userSpaceOnUse"
       spreadMethod="pad" />
    <linearGradient
       inkscape:collect="always"
       xlink:href="#linearGradient3923"
       id="linearGradient3925"
       x1="368.23759"
       y1="494.14916"
       x2="1020.2508"
       y2="494.14916"
       gradientUnits="userSpaceOnUse" />
  </defs>
  <sodipodi:namedview
     id="namedview4"
     pagecolor="#505050"
     bordercolor="#ffffff"
     borderopacity="1"
     inkscape:showpageshadow="0"
     inkscape:pageopacity="0"
     inkscape:pagecheckerboard="1"
     inkscape:deskcolor="#505050"
     showgrid="false"
     inkscape:zoom="0.7625"
     inkscape:cx="679.34426"
     inkscape:cy="667.54098"
     inkscape:window-width="2560"
     inkscape:window-height="1374"
     inkscape:window-x="1920"
     inkscape:window-y="28"
     inkscape:window-maximized="1"
     inkscape:current-layer="g10">
    <inkscape:page
       x="0"
       y="0"
       id="page8"
       width="2000"
       height="1333.3333" />
  </sodipodi:namedview>
  <g
     id="g10"
     inkscape:groupmode="layer"
     inkscape:label="Page 1"
     transform="matrix(1.3333333,0,0,-1.3333333,0,1333.3333)">
    <g
       id="g14"
       style="fill-opacity:1;fill:url(#linearGradient3191)">
      <g
         id="g16"
         style="fill-opacity:1;fill:url(#linearGradient3191)">
        <g
           id="g22"
           style="fill-opacity:1;fill:url(#linearGradient3191)">
          <g
             id="g24"
             style="fill-opacity:1;fill:url(#linearGradient3191)">
            <path
               d="m 648.496,544.891 c -20.653,-25.25 -16.926,-62.463 8.325,-83.116 v 0 c 25.251,-20.654 62.463,-16.927 83.117,8.325 v 0 c 20.653,25.251 16.926,62.463 -8.324,83.116 v 0 c -10.976,8.977 -24.21,13.348 -37.363,13.348 v 0 c -17.109,0 -34.078,-7.396 -45.755,-21.673"
               style="fill:url(#linearGradient3191);stroke:none;fill-opacity:1"
               id="path34" />
          </g>
        </g>
      </g>
    </g>
    <g
       id="g36"
       style="fill-opacity:1;fill:url(#linearGradient3925)">
      <g
         id="g38"
         style="fill-opacity:1;fill:url(#linearGradient3925)">
        <g
           id="g44"
           style="fill-opacity:1;fill:url(#linearGradient3925)">
          <g
             id="g46"
             style="fill-opacity:1;fill:url(#linearGradient3925)">
            <path
               d="m 925.933,525.992 c 8.622,-3.631 23.973,-10.126 21.076,-19.021 v 0 c -0.965,-2.96 -8.059,-6.969 -10.887,-8.271 v 0 C 798.499,435.348 583.789,446.413 451.956,492.956 v 0 c -7.799,2.754 -17.268,9.092 -14.387,16.845 v 0 c 1.275,3.428 4.502,5.872 7.872,7.293 v 0 c 62.436,26.314 105.725,34.905 175.558,46.002 v 0 c -70.327,-5.72 -146.735,-3.491 -240.706,-49.646 v 0 c -6.668,-3.275 -11.507,-12.393 -11.918,-14.951 v 0 c -1.764,-10.974 13.922,-15.238 20.34,-17.612 v 0 c 298.532,-110.451 579.444,-29.634 619.675,9.107 v 0 c 4.092,3.94 10.279,8.691 11.51,14.238 v 0 c 2.803,12.653 -11.743,21.759 -24.009,25.949 v 0 c -68.78,23.491 -191.21,33.049 -263.893,33.102 v 0 c 64.504,-3.654 134.391,-12.214 193.935,-37.291"
               style="fill:url(#linearGradient3925);stroke:none;fill-opacity:1"
               id="path56" />
          </g>
        </g>
      </g>
    </g>
    <g
       id="g102"
       style="fill-opacity:1;fill:url(#linearGradient3139)">
      <g
         id="g104"
         style="fill-opacity:1;fill:url(#linearGradient3139)">
        <g
           id="g110"
           style="fill-opacity:1;fill:url(#linearGradient3139)">
          <g
             id="g112"
             style="fill-opacity:1;fill:url(#linearGradient3139)">
            <path
               d="m 666.172,770.232 c -15.448,-4.556 -17.243,-26.713 -18.507,-42.668 v 0 c -3.268,-41.27 3.732,-75.186 17.608,-131.113 v 0 c -9.821,69.63 -8.969,96.686 -8.236,123.396 v 0 c 0.229,8.309 10e-4,16.017 6.242,21.561 v 0 c 8.924,5.329 15.975,-16.285 18.972,-27.633 v 0 c 17.573,-66.551 34.876,-133.324 45.264,-201.421 v 0 c 10.388,-68.097 13.776,-137.781 3.463,-206.06 v 0 c -0.228,-1.51 -0.481,-3.069 -1.302,-4.361 v 0 c -2.295,-3.612 -2.885,-3.014 -6.063,-0.196 v 0 c -3.178,2.815 -26.901,70.928 -34.994,100.902 v 0 c 11.488,-60.514 16.134,-89.42 36.006,-119.316 v 0 c 1.99,-2.994 4.216,-6.917 7.787,-6.355 v 0 c 3.653,0.575 5.003,5.064 5.54,8.721 v 0 c 21.365,145.406 -1.19,294.051 -43.181,434.372 v 0 c -5.394,18.026 -15.713,50.362 -27.084,50.365 v 0 c -0.503,0 -1.008,-0.063 -1.515,-0.194"
               style="fill:url(#linearGradient3139);stroke:none;fill-opacity:1"
               id="path122" />
          </g>
        </g>
      </g>
    </g>
    <g
       id="g124"
       style="fill-opacity:1;fill:url(#linearGradient3155)">
      <g
         id="g58"
         style="fill-opacity:1;fill:url(#linearGradient3147)">
        <g
           id="g60"
           style="fill-opacity:1;fill:url(#linearGradient3147)">
          <g
             id="g66"
             style="fill-opacity:1;fill:url(#linearGradient3147)">
            <g
               id="g68"
               style="fill-opacity:1;fill:url(#linearGradient3147)">
              <path
                 d="M 866.484,653.485 C 812.443,636.976 761.096,611.688 715.063,578.914 v 0 c 31.402,22.357 178.758,75.838 238.955,53.393 v 0 c 2.932,-1.094 6.206,-1.708 8.369,-3.969 v 0 c 4.961,-5.186 1.993,-13.714 -1.535,-19.962 v 0 c -17.909,-31.711 -43.829,-58.249 -71.977,-81.358 v 0 C 832.999,481.148 768.011,447.844 702.556,417.154 v 0 C 649.379,392.223 592.557,368.245 534.066,373.547 v 0 c -5.144,0.467 -12.029,4.098 -9.723,8.721 v 0 c -6.252,-2.797 -5.824,-12.724 -0.709,-17.278 v 0 c 5.115,-4.553 16.769,-30.763 107.193,-0.132 v 0 c 95.092,32.213 163.422,57.572 243.989,117.481 v 0 c 32.137,23.896 78.197,57.628 120.406,115.961 v 0 c 8.294,11.463 19.827,32.285 14.927,45.56 v 0 c -3.621,9.814 -13.835,15.494 -23.714,18.933 v 0 c -12.041,4.193 -24.922,5.899 -38.108,5.9 v 0 c -27.522,0 -56.39,-7.432 -81.843,-15.208"
                 style="fill:url(#linearGradient3147);stroke:none;fill-opacity:1"
                 id="path78" />
            </g>
          </g>
        </g>
      </g>
    </g>
    <g
       id="g126"
       style="fill-opacity:1;fill:url(#linearGradient3155)">
      <g
         id="g132"
         style="fill-opacity:1;fill:url(#linearGradient3155)">
        <g
           id="g134"
           style="fill-opacity:1;fill:url(#linearGradient3155)">
          <path
             d="m 475.621,397.823 c -6.664,-5.758 -12.066,-13.364 -13.665,-22.025 v 0 c -1.597,-8.662 1.148,-18.378 8.099,-23.788 v 0 c 7.175,-5.586 17.038,-5.746 26.13,-5.658 v 0 c 9.078,0.087 18.154,0.172 27.232,0.26 v 0 c -12.465,1.51 -28.963,5.868 -35.823,17.307 v 0 c -4.487,7.485 -5.223,16.929 -2.712,25.287 v 0 c 2.505,8.337 7.92,15.441 13.23,22.341 v 0 c -7.922,-3.852 -15.825,-7.965 -22.491,-13.724"
             style="fill:url(#linearGradient3155);stroke:none;fill-opacity:1"
             id="path144" />
        </g>
      </g>
    </g>
    <g
       id="g168"
       style="fill-opacity:1;fill:url(#linearGradient953)">
      <g
         id="g170"
         style="fill-opacity:1;fill:url(#linearGradient953)">
        <g
           id="g176"
           style="fill-opacity:1;fill:url(#linearGradient953)">
          <g
             id="g178"
             style="fill-opacity:1;fill:url(#linearGradient953)">
            <path
               d="M 692.999,732.443 C 640.933,731.074 577.556,650.476 582.776,535.396 v 0 c 4.402,-97.035 66.516,-185.509 85.887,-210.869 v 0 c -13.109,17.88 -46.017,70.123 -70.087,171.013 v 0 C 567.048,627.7 660.78,756.898 749.163,699.892 v 0 C 837.546,642.885 866.718,510.763 866.718,510.763 v 0 C 840.792,656.945 746.758,732.468 694.399,732.461 v 0 c -0.467,0 -0.939,-0.006 -1.4,-0.018 M 674.391,317.276 c 0,0 -2.125,2.535 -5.728,7.251 v 0 c 3.619,-4.935 5.728,-7.251 5.728,-7.251"
               style="fill:url(#linearGradient953);stroke:none;fill-opacity:1"
               id="path188" />
          </g>
        </g>
      </g>
    </g>
  </g>
</svg>
