<?xml version="1.0" encoding="UTF-8" standalone="no"?>
<!-- Created with Inkscape (http://www.inkscape.org/) -->

<svg
   version="1.1"
   id="svg2"
   width="2000"
   height="1333.3333"
   viewBox="0 0 2000 1333.3333"
   sodipodi:docname="Vector Icon.svg"
   inkscape:version="1.2.2 (b0a8486541, 2022-12-01)"
   xmlns:inkscape="http://www.inkscape.org/namespaces/inkscape"
   xmlns:sodipodi="http://sodipodi.sourceforge.net/DTD/sodipodi-0.dtd"
   xmlns="http://www.w3.org/2000/svg"
   xmlns:svg="http://www.w3.org/2000/svg">
  <defs
     id="defs6">
    <linearGradient
       x1="0"
       y1="0"
       x2="1"
       y2="0"
       gradientUnits="userSpaceOnUse"
       gradientTransform="matrix(91.442108,-74.792381,-74.792381,-91.442108,648.49597,544.89185)"
       spreadMethod="pad"
       id="linearGradient32">
      <stop
         style="stop-opacity:1;stop-color:#45f4ff"
         offset="0"
         id="stop26" />
      <stop
         style="stop-opacity:1;stop-color:#45f4ff"
         offset="0.07054559"
         id="stop28" />
      <stop
         style="stop-opacity:1;stop-color:#3f83fb"
         offset="1"
         id="stop30" />
    </linearGradient>
    <linearGradient
       x1="0"
       y1="0"
       x2="1"
       y2="0"
       gradientUnits="userSpaceOnUse"
       gradientTransform="matrix(390.03943,-319.0213,-319.0213,-390.03943,500.00903,662.38348)"
       spreadMethod="pad"
       id="linearGradient54">
      <stop
         style="stop-opacity:1;stop-color:#ef7ec0"
         offset="0"
         id="stop48" />
      <stop
         style="stop-opacity:1;stop-color:#ef7ec0"
         offset="0.10746959"
         id="stop50" />
      <stop
         style="stop-opacity:1;stop-color:#e00063"
         offset="1"
         id="stop52" />
    </linearGradient>
    <linearGradient
       x1="0"
       y1="0"
       x2="1"
       y2="0"
       gradientUnits="userSpaceOnUse"
       gradientTransform="matrix(-49.268631,114.17083,114.17083,49.268631,791.95013,445.11688)"
       spreadMethod="pad"
       id="linearGradient76">
      <stop
         style="stop-opacity:1;stop-color:#45f4ff"
         offset="0"
         id="stop70" />
      <stop
         style="stop-opacity:1;stop-color:#45f4ff"
         offset="0.07054559"
         id="stop72" />
      <stop
         style="stop-opacity:1;stop-color:#3f83fb"
         offset="1"
         id="stop74" />
    </linearGradient>
    <linearGradient
       x1="0"
       y1="0"
       x2="1"
       y2="0"
       gradientUnits="userSpaceOnUse"
       gradientTransform="matrix(-126.58599,-72.22522,-72.22522,126.58599,847.43677,470.474)"
       spreadMethod="pad"
       id="linearGradient98">
      <stop
         style="stop-opacity:1;stop-color:#ef7ec0"
         offset="0"
         id="stop92" />
      <stop
         style="stop-opacity:1;stop-color:#ef7ec0"
         offset="0.10746959"
         id="stop94" />
      <stop
         style="stop-opacity:1;stop-color:#e00063"
         offset="1"
         id="stop96" />
    </linearGradient>
    <linearGradient
       x1="0"
       y1="0"
       x2="1"
       y2="0"
       gradientUnits="userSpaceOnUse"
       gradientTransform="matrix(276.49887,-307.62668,-310.20239,-278.82001,561.36969,678.37628)"
       spreadMethod="pad"
       id="linearGradient120">
      <stop
         style="stop-opacity:1;stop-color:#45f4ff"
         offset="0"
         id="stop114" />
      <stop
         style="stop-opacity:1;stop-color:#45f4ff"
         offset="0.07054559"
         id="stop116" />
      <stop
         style="stop-opacity:1;stop-color:#3f83fb"
         offset="1"
         id="stop118" />
    </linearGradient>
    <linearGradient
       x1="0"
       y1="0"
       x2="1"
       y2="0"
       gradientUnits="userSpaceOnUse"
       gradientTransform="matrix(54.3115,-44.422497,-44.422497,-54.3115,470.57175,392.82639)"
       spreadMethod="pad"
       id="linearGradient142">
      <stop
         style="stop-opacity:1;stop-color:#45f4ff"
         offset="0"
         id="stop136" />
      <stop
         style="stop-opacity:1;stop-color:#45f4ff"
         offset="0.07054559"
         id="stop138" />
      <stop
         style="stop-opacity:1;stop-color:#3f83fb"
         offset="1"
         id="stop140" />
    </linearGradient>
    <linearGradient
       x1="0"
       y1="0"
       x2="1"
       y2="0"
       gradientUnits="userSpaceOnUse"
       gradientTransform="matrix(36.608589,-29.942919,-29.942919,-36.608589,670.17517,411.64752)"
       spreadMethod="pad"
       id="linearGradient164">
      <stop
         style="stop-opacity:1;stop-color:#45f4ff"
         offset="0"
         id="stop158" />
      <stop
         style="stop-opacity:1;stop-color:#45f4ff"
         offset="0.07054559"
         id="stop160" />
      <stop
         style="stop-opacity:1;stop-color:#3f83fb"
         offset="1"
         id="stop162" />
    </linearGradient>
    <linearGradient
       x1="0"
       y1="0"
       x2="1"
       y2="0"
       gradientUnits="userSpaceOnUse"
       gradientTransform="matrix(232.31921,-190.01868,-190.01868,-232.31921,574.65515,627.73791)"
       spreadMethod="pad"
       id="linearGradient186">
      <stop
         style="stop-opacity:1;stop-color:#45f4ff"
         offset="0"
         id="stop180" />
      <stop
         style="stop-opacity:1;stop-color:#45f4ff"
         offset="0.07054559"
         id="stop182" />
      <stop
         style="stop-opacity:1;stop-color:#3f83fb"
         offset="1"
         id="stop184" />
    </linearGradient>
    <linearGradient
       x1="0"
       y1="0"
       x2="1"
       y2="0"
       gradientUnits="userSpaceOnUse"
       gradientTransform="matrix(43.551117,-35.621353,-35.621353,-43.551117,672.67023,737.89471)"
       spreadMethod="pad"
       id="linearGradient208">
      <stop
         style="stop-opacity:1;stop-color:#45f4ff"
         offset="0"
         id="stop202" />
      <stop
         style="stop-opacity:1;stop-color:#45f4ff"
         offset="0.07054559"
         id="stop204" />
      <stop
         style="stop-opacity:1;stop-color:#3f83fb"
         offset="1"
         id="stop206" />
    </linearGradient>
    <linearGradient
       x1="0"
       y1="0"
       x2="1"
       y2="0"
       gradientUnits="userSpaceOnUse"
       gradientTransform="matrix(-101.25969,-57.774979,-57.774979,101.25969,648.65344,468.31927)"
       spreadMethod="pad"
       id="linearGradient230">
      <stop
         style="stop-opacity:1;stop-color:#ef7ec0"
         offset="0"
         id="stop224" />
      <stop
         style="stop-opacity:1;stop-color:#ef7ec0"
         offset="0.10746959"
         id="stop226" />
      <stop
         style="stop-opacity:1;stop-color:#e00063"
         offset="1"
         id="stop228" />
    </linearGradient>
    <linearGradient
       x1="0"
       y1="0"
       x2="1"
       y2="0"
       gradientUnits="userSpaceOnUse"
       gradientTransform="matrix(-55.710682,-31.786425,-31.786425,55.710682,608.78217,569.82965)"
       spreadMethod="pad"
       id="linearGradient252">
      <stop
         style="stop-opacity:1;stop-color:#ef7ec0"
         offset="0"
         id="stop246" />
      <stop
         style="stop-opacity:1;stop-color:#ef7ec0"
         offset="0.10746959"
         id="stop248" />
      <stop
         style="stop-opacity:1;stop-color:#e00063"
         offset="1"
         id="stop250" />
    </linearGradient>
    <linearGradient
       x1="0"
       y1="0"
       x2="1"
       y2="0"
       gradientUnits="userSpaceOnUse"
       gradientTransform="matrix(-59.906776,-34.180557,-34.180557,59.906776,832.70911,370.10242)"
       spreadMethod="pad"
       id="linearGradient274">
      <stop
         style="stop-opacity:1;stop-color:#ef7ec0"
         offset="0"
         id="stop268" />
      <stop
         style="stop-opacity:1;stop-color:#ef7ec0"
         offset="0.10746959"
         id="stop270" />
      <stop
         style="stop-opacity:1;stop-color:#e00063"
         offset="1"
         id="stop272" />
    </linearGradient>
    <linearGradient
       x1="0"
       y1="0"
       x2="1"
       y2="0"
       gradientUnits="userSpaceOnUse"
       gradientTransform="matrix(-59.907944,-34.181225,-34.181225,59.907944,599.71759,742.92236)"
       spreadMethod="pad"
       id="linearGradient296">
      <stop
         style="stop-opacity:1;stop-color:#45f4ff"
         offset="0"
         id="stop290" />
      <stop
         style="stop-opacity:1;stop-color:#45f4ff"
         offset="0.07054559"
         id="stop292" />
      <stop
         style="stop-opacity:1;stop-color:#3f83fb"
         offset="1"
         id="stop294" />
    </linearGradient>
  </defs>
  <sodipodi:namedview
     id="namedview4"
     pagecolor="#505050"
     bordercolor="#ffffff"
     borderopacity="1"
     inkscape:showpageshadow="0"
     inkscape:pageopacity="0"
     inkscape:pagecheckerboard="1"
     inkscape:deskcolor="#505050"
     showgrid="false"
     inkscape:zoom="0.7625"
     inkscape:cx="675.40984"
     inkscape:cy="666.88525"
     inkscape:window-width="1912"
     inkscape:window-height="1207"
     inkscape:window-x="0"
     inkscape:window-y="0"
     inkscape:window-maximized="0"
     inkscape:current-layer="g10">
    <inkscape:page
       x="0"
       y="0"
       id="page8"
       width="2000"
       height="1333.3333" />
  </sodipodi:namedview>
  <g
     id="g10"
     inkscape:groupmode="layer"
     inkscape:label="Page 1"
     transform="matrix(1.3333333,0,0,-1.3333333,0,1333.3333)">
    <path
       d="M 0,0 H 1500 V 1000 H 0 Z"
       style="fill:#102c34;fill-opacity:1;fill-rule:nonzero;stroke:none"
       id="path12" />
    <g
       id="g14">
      <g
         id="g16">
        <g
           id="g22">
          <g
             id="g24">
            <path
               d="m 648.496,544.891 c -20.653,-25.25 -16.926,-62.463 8.325,-83.116 v 0 c 25.251,-20.654 62.463,-16.927 83.117,8.325 v 0 c 20.653,25.251 16.926,62.463 -8.324,83.116 v 0 c -10.976,8.977 -24.21,13.348 -37.363,13.348 v 0 c -17.109,0 -34.078,-7.396 -45.755,-21.673"
               style="fill:url(#linearGradient32);stroke:none"
               id="path34" />
          </g>
        </g>
      </g>
    </g>
    <g
       id="g36">
      <g
         id="g38">
        <g
           id="g44">
          <g
             id="g46">
            <path
               d="m 925.933,525.992 c 8.622,-3.631 23.973,-10.126 21.076,-19.021 v 0 c -0.965,-2.96 -8.059,-6.969 -10.887,-8.271 v 0 C 798.499,435.348 583.789,446.413 451.956,492.956 v 0 c -7.799,2.754 -17.268,9.092 -14.387,16.845 v 0 c 1.275,3.428 4.502,5.872 7.872,7.293 v 0 c 62.436,26.314 105.725,34.905 175.558,46.002 v 0 c -70.327,-5.72 -146.735,-3.491 -240.706,-49.646 v 0 c -6.668,-3.275 -11.507,-12.393 -11.918,-14.951 v 0 c -1.764,-10.974 13.922,-15.238 20.34,-17.612 v 0 c 298.532,-110.451 579.444,-29.634 619.675,9.107 v 0 c 4.092,3.94 10.279,8.691 11.51,14.238 v 0 c 2.803,12.653 -11.743,21.759 -24.009,25.949 v 0 c -68.78,23.491 -191.21,33.049 -263.893,33.102 v 0 c 64.504,-3.654 134.391,-12.214 193.935,-37.291"
               style="fill:url(#linearGradient54);stroke:none"
               id="path56" />
          </g>
        </g>
      </g>
    </g>
    <g
       id="g58">
      <g
         id="g60">
        <g
           id="g66">
          <g
             id="g68">
            <path
               d="M 866.484,653.485 C 812.443,636.976 761.096,611.688 715.063,578.914 v 0 c 31.402,22.357 178.758,75.838 238.955,53.393 v 0 c 2.932,-1.094 6.206,-1.708 8.369,-3.969 v 0 c 4.961,-5.186 1.993,-13.714 -1.535,-19.962 v 0 c -17.909,-31.711 -43.829,-58.249 -71.977,-81.358 v 0 C 832.999,481.148 768.011,447.844 702.556,417.154 v 0 C 649.379,392.223 592.557,368.245 534.066,373.547 v 0 c -5.144,0.467 -12.029,4.098 -9.723,8.721 v 0 c -6.252,-2.797 -5.824,-12.724 -0.709,-17.278 v 0 c 5.115,-4.553 16.769,-30.763 107.193,-0.132 v 0 c 95.092,32.213 163.422,57.572 243.989,117.481 v 0 c 32.137,23.896 78.197,57.628 120.406,115.961 v 0 c 8.294,11.463 19.827,32.285 14.927,45.56 v 0 c -3.621,9.814 -13.835,15.494 -23.714,18.933 v 0 c -12.041,4.193 -24.922,5.899 -38.108,5.9 v 0 c -27.522,0 -56.39,-7.432 -81.843,-15.208"
               style="fill:url(#linearGradient76);stroke:none"
               id="path78" />
          </g>
        </g>
      </g>
    </g>
    <g
       id="g80">
      <g
         id="g82">
        <g
           id="g88">
          <g
             id="g90">
            <path
               d="m 768.509,461.384 c -11.694,-14.297 -9.583,-35.366 4.713,-47.06 v 0 c 14.298,-11.693 35.366,-9.583 47.06,4.713 v 0 c 11.693,14.297 9.583,35.367 -4.714,47.059 v 0 c -6.214,5.084 -13.706,7.559 -21.154,7.558 v 0 c -9.685,-10e-4 -19.294,-4.188 -25.905,-12.27"
               style="fill:url(#linearGradient98);stroke:none"
               id="path100" />
          </g>
        </g>
      </g>
    </g>
    <g
       id="g102">
      <g
         id="g104">
        <g
           id="g110">
          <g
             id="g112">
            <path
               d="m 666.172,770.232 c -15.448,-4.556 -17.243,-26.713 -18.507,-42.668 v 0 c -3.268,-41.27 3.732,-75.186 17.608,-131.113 v 0 c -9.821,69.63 -8.969,96.686 -8.236,123.396 v 0 c 0.229,8.309 10e-4,16.017 6.242,21.561 v 0 c 8.924,5.329 15.975,-16.285 18.972,-27.633 v 0 c 17.573,-66.551 34.876,-133.324 45.264,-201.421 v 0 c 10.388,-68.097 13.776,-137.781 3.463,-206.06 v 0 c -0.228,-1.51 -0.481,-3.069 -1.302,-4.361 v 0 c -2.295,-3.612 -2.885,-3.014 -6.063,-0.196 v 0 c -3.178,2.815 -26.901,70.928 -34.994,100.902 v 0 c 11.488,-60.514 16.134,-89.42 36.006,-119.316 v 0 c 1.99,-2.994 4.216,-6.917 7.787,-6.355 v 0 c 3.653,0.575 5.003,5.064 5.54,8.721 v 0 c 21.365,145.406 -1.19,294.051 -43.181,434.372 v 0 c -5.394,18.026 -15.713,50.362 -27.084,50.365 v 0 c -0.503,0 -1.008,-0.063 -1.515,-0.194"
               style="fill:url(#linearGradient120);stroke:none"
               id="path122" />
          </g>
        </g>
      </g>
    </g>
    <g
       id="g124">
      <g
         id="g126">
        <g
           id="g132">
          <g
             id="g134">
            <path
               d="m 475.621,397.823 c -6.664,-5.758 -12.066,-13.364 -13.665,-22.025 v 0 c -1.597,-8.662 1.148,-18.378 8.099,-23.788 v 0 c 7.175,-5.586 17.038,-5.746 26.13,-5.658 v 0 c 9.078,0.087 18.154,0.172 27.232,0.26 v 0 c -12.465,1.51 -28.963,5.868 -35.823,17.307 v 0 c -4.487,7.485 -5.223,16.929 -2.712,25.287 v 0 c 2.505,8.337 7.92,15.441 13.23,22.341 v 0 c -7.922,-3.852 -15.825,-7.965 -22.491,-13.724"
               style="fill:url(#linearGradient142);stroke:none"
               id="path144" />
          </g>
        </g>
      </g>
    </g>
    <g
       id="g146">
      <g
         id="g148">
        <g
           id="g154">
          <g
             id="g156">
            <path
               d="m 670.175,411.647 c -8.268,-10.109 -6.777,-25.007 3.333,-33.275 v 0 c 10.109,-8.269 25.007,-6.776 33.276,3.333 v 0 c 8.268,10.109 6.776,25.007 -3.333,33.275 v 0 c -4.394,3.595 -9.692,5.345 -14.958,5.344 v 0 c -6.849,0 -13.644,-2.962 -18.318,-8.677"
               style="fill:url(#linearGradient164);stroke:none"
               id="path166" />
          </g>
        </g>
      </g>
    </g>
    <g
       id="g168">
      <g
         id="g170">
        <g
           id="g176">
          <g
             id="g178">
            <path
               d="M 692.999,732.443 C 640.933,731.074 577.556,650.476 582.776,535.396 v 0 c 4.402,-97.035 66.516,-185.509 85.887,-210.869 v 0 c -13.109,17.88 -46.017,70.123 -70.087,171.013 v 0 C 567.048,627.7 660.78,756.898 749.163,699.892 v 0 C 837.546,642.885 866.718,510.763 866.718,510.763 v 0 C 840.792,656.945 746.758,732.468 694.399,732.461 v 0 c -0.467,0 -0.939,-0.006 -1.4,-0.018 M 674.391,317.276 c 0,0 -2.125,2.535 -5.728,7.251 v 0 c 3.619,-4.935 5.728,-7.251 5.728,-7.251"
               style="fill:url(#linearGradient186);stroke:none"
               id="path188" />
          </g>
        </g>
      </g>
    </g>
    <g
       id="g190">
      <g
         id="g192">
        <g
           id="g198">
          <g
             id="g200">
            <path
               d="m 672.671,737.895 c -9.837,-12.027 -8.062,-29.75 3.964,-39.587 v 0 c 12.027,-9.836 29.75,-8.061 39.586,3.966 v 0 c 9.837,12.025 8.062,29.748 -3.965,39.585 v 0 c -5.227,4.276 -11.53,6.357 -17.794,6.357 v 0 c -8.148,0 -16.23,-3.522 -21.791,-10.321"
               style="fill:url(#linearGradient208);stroke:none"
               id="path210" />
          </g>
        </g>
      </g>
    </g>
    <g
       id="g212">
      <g
         id="g214">
        <g
           id="g220">
          <g
             id="g222">
            <path
               d="m 585.517,461.047 c -9.354,-11.436 -7.666,-28.289 3.77,-37.644 v 0 c 11.437,-9.354 28.29,-7.666 37.645,3.771 v 0 c 9.353,11.437 7.665,28.29 -3.771,37.644 v 0 c -4.971,4.066 -10.964,6.045 -16.921,6.045 v 0 c -7.748,0 -15.434,-3.35 -20.723,-9.816"
               style="fill:url(#linearGradient230);stroke:none"
               id="path232" />
          </g>
        </g>
      </g>
    </g>
    <g
       id="g234">
      <g
         id="g236">
        <g
           id="g242">
          <g
             id="g244">
            <path
               d="m 574.046,565.828 c -5.146,-6.292 -4.217,-15.564 2.074,-20.71 v 0 c 6.292,-5.146 15.564,-4.217 20.711,2.075 v 0 c 5.146,6.292 4.218,15.564 -2.074,20.711 v 0 c -2.735,2.236 -6.032,3.325 -9.309,3.325 v 0 c -4.263,0 -8.492,-1.843 -11.402,-5.401"
               style="fill:url(#linearGradient252);stroke:none"
               id="path254" />
          </g>
        </g>
      </g>
    </g>
    <g
       id="g256">
      <g
         id="g258">
        <g
           id="g264">
          <g
             id="g266">
            <path
               d="m 795.356,365.801 c -5.533,-6.767 -4.535,-16.738 2.231,-22.272 v 0 c 6.765,-5.533 16.737,-4.535 22.272,2.231 v 0 c 5.533,6.766 4.534,16.737 -2.232,22.272 v 0 c -2.941,2.404 -6.487,3.576 -10.011,3.576 v 0 c -4.584,0 -9.131,-1.982 -12.26,-5.807"
               style="fill:url(#linearGradient274);stroke:none"
               id="path276" />
          </g>
        </g>
      </g>
    </g>
    <g
       id="g278">
      <g
         id="g280">
        <g
           id="g286">
          <g
             id="g288">
            <path
               d="m 562.364,738.62 c -5.533,-6.765 -4.535,-16.736 2.23,-22.271 v 0 c 6.766,-5.534 16.738,-4.535 22.273,2.231 v 0 c 5.534,6.766 4.535,16.737 -2.232,22.271 v 0 c -2.94,2.405 -6.486,3.576 -10.011,3.576 v 0 c -4.584,0 -9.131,-1.982 -12.26,-5.807"
               style="fill:url(#linearGradient296);stroke:none"
               id="path298" />
          </g>
        </g>
      </g>
    </g>
  </g>
</svg>
